<svg width="40" height="41" viewBox="0 0 40 41" fill="none" xmlns="http://www.w3.org/2000/svg">
<path d="M31.6667 0H8.33333C3.73167 0 0 3.82496 0 8.54167V32.4583C0 37.175 3.73167 41 8.33333 41H31.6667C36.27 41 40 37.175 40 32.4583V8.54167C40 3.82496 36.27 0 31.6667 0ZM26.6667 11.9583H23.46C22.435 11.9583 21.6667 12.3888 21.6667 13.477V15.375H26.6667L26.27 20.5H21.6667V34.1667H16.6667V20.5H13.3333V15.375H16.6667V12.0899C16.6667 8.63562 18.44 6.83333 22.435 6.83333H26.6667V11.9583Z" fill="#ADADAD"/>
</svg>
