<svg width="41" height="41" viewBox="0 0 41 41" fill="none" xmlns="http://www.w3.org/2000/svg">
<path d="M26.023 9.37533C24.5829 9.31042 24.149 9.29675 20.5 9.29675C16.851 9.29675 16.4188 9.31042 14.9787 9.37533C11.2716 9.54446 9.54446 11.3006 9.37704 14.977C9.31042 16.4188 9.29504 16.851 9.29504 20.5C9.29504 24.149 9.31042 24.5812 9.37533 26.023C9.54446 29.6925 11.2648 31.4555 14.977 31.6247C16.4171 31.6896 16.851 31.705 20.5 31.705C24.1507 31.705 24.5829 31.6913 26.023 31.6264C29.7301 31.4573 31.4555 29.6977 31.6247 26.0248C31.6896 24.5829 31.7033 24.1507 31.7033 20.5017C31.7033 16.8527 31.6896 16.4205 31.6247 14.9804C31.4555 11.3023 29.7267 9.54446 26.023 9.37533ZM20.5 27.5178C16.6238 27.5178 13.4822 24.3762 13.4822 20.5C13.4822 16.6238 16.6255 13.4822 20.5 13.4822C24.3745 13.4822 27.5178 16.6238 27.5178 20.5C27.5178 24.3762 24.3762 27.5178 20.5 27.5178ZM27.7963 14.8454C26.8909 14.8454 26.1563 14.1108 26.1563 13.2054C26.1563 12.3 26.8909 11.5654 27.7963 11.5654C28.7017 11.5654 29.4363 12.3 29.4363 13.2054C29.4363 14.1108 28.7017 14.8454 27.7963 14.8454ZM25.0561 20.5C25.0561 23.0164 23.0164 25.0561 20.5 25.0561C17.9836 25.0561 15.9439 23.0164 15.9439 20.5C15.9439 17.9836 17.9836 15.9439 20.5 15.9439C23.0164 15.9439 25.0561 17.9836 25.0561 20.5ZM32.4583 0H8.54167C3.82496 0 0 3.82496 0 8.54167V32.4583C0 37.175 3.82496 41 8.54167 41H32.4583C37.1768 41 41 37.175 41 32.4583V8.54167C41 3.82496 37.1768 0 32.4583 0V0ZM34.0847 26.1341C33.8592 31.1036 31.0934 33.8575 26.1358 34.0847C24.6769 34.1513 24.2122 34.1667 20.5 34.1667C16.7878 34.1667 16.3248 34.1513 14.8659 34.0847C9.89808 33.8575 7.14425 31.0985 6.91533 26.1341C6.84871 24.6769 6.83333 24.2122 6.83333 20.5C6.83333 16.7895 6.84871 16.3231 6.91533 14.8659C7.14425 9.89808 9.9015 7.14254 14.8659 6.91704C16.3248 6.84871 16.7878 6.83333 20.5 6.83333C24.2122 6.83333 24.6769 6.84871 26.1358 6.91533C31.1036 7.14254 33.8626 9.90663 34.0847 14.8642C34.1513 16.3231 34.1667 16.7895 34.1667 20.5C34.1667 24.2122 34.1513 24.6769 34.0847 26.1341Z" fill="#ADADAD"/>
</svg>
