<svg width="41" height="41" viewBox="0 0 41 41" fill="none" xmlns="http://www.w3.org/2000/svg">
<path d="M27.8168 23.7168C27.8168 27.1779 25.0578 29.4465 20.939 29.4465C17.3157 29.4465 13.6752 27.798 13.6923 24.9587C13.6974 24.1029 14.3346 23.317 15.182 23.317C17.3157 23.317 17.2952 26.4997 20.6913 26.4997C23.0762 26.4997 23.8893 25.1945 23.8893 24.2857C23.8893 20.9988 13.5881 23.013 13.5881 16.8339C13.5881 13.489 16.3248 11.181 20.6264 11.4339C24.7281 11.6765 27.1335 13.4873 27.3641 15.1803C27.4785 16.2855 26.7474 17.1465 25.4764 17.1465C23.6211 17.1465 23.4332 14.6626 20.2369 14.6626C18.7951 14.6626 17.5788 15.264 17.5788 16.5691C17.5788 19.2973 27.8168 17.7137 27.8168 23.7168ZM41 8.54167V32.4583C41 37.175 37.1768 41 32.4583 41H8.54167C3.82496 41 0 37.175 0 32.4583V8.54167C0 3.82496 3.82496 0 8.54167 0H32.4583C37.1768 0 41 3.82496 41 8.54167ZM33.0135 22.7396C34.5579 13.8956 26.8465 6.32596 18.1476 7.95742C11.5176 3.90183 3.90867 11.632 7.97279 18.2416C6.39258 27.0651 14.104 34.7338 22.8729 33.058C29.5149 37.0845 37.1016 29.344 33.0135 22.7396Z" fill="#ADADAD"/>
</svg>
