<svg width="41" height="41" viewBox="0 0 41 41" fill="none" xmlns="http://www.w3.org/2000/svg">
<path fill-rule="evenodd" clip-rule="evenodd" d="M32.4583 41H8.54167C3.82496 41 0 37.175 0 32.4583V8.54167C0 3.82496 3.82496 0 8.54167 0H32.4583C37.1768 0 41 3.82496 41 8.54167V32.4583C41 37.175 37.1768 41 32.4583 41ZM27.7707 32.2055C28.138 32.4669 28.6095 32.5318 29.0314 32.3712C29.4517 32.2123 29.7626 31.8519 29.8565 31.4145C30.8457 26.7645 33.2476 14.9906 34.1479 10.7608C34.2145 10.4413 34.1017 10.1099 33.8523 9.89637C33.6012 9.68454 33.2527 9.62304 32.9435 9.7375C28.1687 11.5039 13.4617 17.0218 7.45004 19.2478C7.06908 19.3879 6.82137 19.7552 6.83333 20.1583C6.847 20.5598 7.11863 20.91 7.50813 21.0279C10.2039 21.8325 13.7435 22.9549 13.7435 22.9549C13.7435 22.9549 15.3955 27.95 16.2582 30.4886C16.3658 30.8081 16.617 31.0592 16.945 31.1446C17.2747 31.23 17.6232 31.1412 17.8692 30.9089C19.2546 29.602 21.3952 27.581 21.3952 27.581C21.3952 27.581 25.4627 30.5638 27.7707 32.2055ZM15.2315 22.3245L17.1431 28.6317L17.5685 24.6376C17.5685 24.6376 24.9553 17.9751 29.1681 14.1758C29.2911 14.0647 29.3082 13.8785 29.2057 13.747C29.1032 13.6154 28.917 13.5847 28.7769 13.6735C23.8962 16.7912 15.2315 22.3245 15.2315 22.3245Z" fill="#ADADAD"/>
</svg>
