<svg width="40" height="41" viewBox="0 0 40 41" fill="none" xmlns="http://www.w3.org/2000/svg">
<path d="M31.6667 0H8.33333C3.73167 0 0 3.82496 0 8.54167V32.4583C0 37.175 3.73167 41 8.33333 41H31.6667C36.27 41 40 37.175 40 32.4583V8.54167C40 3.82496 36.27 0 31.6667 0ZM32.0833 29.0348H28.5267C26.5183 29.0348 26.1783 27.8612 24.525 26.1665C23.03 24.6342 22.2 25.8095 22.235 27.991C22.245 28.5702 21.9667 29.0348 21.2917 29.0348C19.185 29.0348 16.1583 29.3389 13.095 25.9496C9.95667 22.4765 6.66667 15.51 6.66667 14.8232C6.66667 14.4183 6.99333 14.2355 7.54 14.2355H11.1567C12.1133 14.2355 12.195 14.7207 12.4617 15.3443C13.5733 17.9426 16.2367 23.1582 16.945 20.2472C17.3517 18.5764 17.5183 14.7036 15.7733 14.3705C14.7833 14.1826 16.5267 13.0961 19.0533 13.0961C19.6817 13.0961 20.3633 13.1661 21.0617 13.3301C22.3433 13.6359 22.3467 14.2236 22.33 15.0829C22.265 18.3338 21.8817 20.5222 22.7183 21.074C23.5167 21.6036 25.6167 18.1408 26.7233 15.469C27.0283 14.7293 27.0883 14.2355 27.9467 14.2355H32.37C34.6867 14.2355 32.0667 17.6471 30.065 20.3121C28.4517 22.456 28.5383 22.4988 30.4133 24.2822C31.7517 25.5532 33.33 27.2889 33.33 28.2729C33.3333 28.7376 32.98 29.0348 32.0833 29.0348Z" fill="#ADADAD"/>
</svg>
